<?xml version="1.0" encoding="UTF-8" standalone="no"?> <svg xmlns="http://www.w3.org/2000/svg" viewBox="0 0 64 64"><g id="_26-Pie" data-name="26-Pie"><path id="path8986" d="M53,48c-.42613,1.02274-.892,2-2,2H13c-1.108,0-1.57384-.97718-2-2l-5-12H58Z" fill="#fbb04f"/><path id="path10341-1" d="M55,36.00006a1.00032,1.00032,0,0,1-.07408.38086L49.922,48.3848a6.1903,6.1903,0,0,1-.877,1.61525h1.95508c1.108,0,1.57384-.97718,2-2l5-12Z" fill="#fba83b"/><path id="path9249" d="M6,34s4-20,26-20,26,20,26,20l0,2H6Z" fill="#fdd5a6"/><path id="path10345-3" d="M37.62693,14.48047a25.25053,25.25053,0,0,1,12.418,8.9239,28.64381,28.64381,0,0,1,4.93165,10.40039l.02267.09562V36h3v-2S54.69934,17.516,37.62615,14.48035Z" fill="#fdcc93"/><path id="path9251" d="M37,37.99767c2,.00081,3,2.00384,5,2.00234,2,.001,3-2.00153,5-2.00153S50,40.00151,52,40c2,.001,3-2.00153,5-2.00061l1.51427.00023a2.5,2.5,0,1,0,0-5L57,33c-2,.00034-3,2.00337-5,2.002-2,.001-3-2.00153-5-2.00153-2,0-3,2.003-5,2.00153-2,.001-3-2.00153-5-2.00234s-3,2.00222-5,2.00072c-2,.00069-3-2.00234-5-2.00153s-3,2.00372-5,2.00234c-2,.001-3-2.00153-5-2.00153s-3,2.003-5,2.00153c-2,.001-3-2.00153-5-2.002l-1.51427-.00035a2.5,2.5,0,1,0,0,5L7,37.99871c2-.001,3,2.002,5,2.00061,2,.001,3-2.00153,5-2.00153,2,0,3,2.003,5,2.00153,2,.001,3-2.00153,5-2.00234s3,2.00222,5,2.00153C34,39.99955,35,37.997,37,37.99767Z" fill="#fcb860"/><path id="path9253" d="M33.99994,26a2,2,0,1,1-4,0c0-1.10463,2-6,2-6S33.99994,24.89551,33.99994,26Z" fill="#fdcc93"/><path id="path9255" d="M22.17156,25.65688a2,2,0,0,1-2.82844-2.82842C20.12418,22.04737,25,20.00005,25,20.00005S22.9526,24.87578,22.17156,25.65688Z" fill="#fdcc93"/><path id="path9257" d="M41.82841,25.65688a2,2,0,0,0,2.82845-2.82842C43.87579,22.04737,39,20.00005,39,20.00005S41.04737,24.87578,41.82841,25.65688Z" fill="#fdcc93"/><path id="path11080-7" d="M57,33c-.02267,0-.03818.00761-.0586.00761a3.46825,3.46825,0,0,1,1.07032,2.49415,6.61675,6.61675,0,0,1-.48048,2.49808h.98245a2.5,2.5,0,1,0,0-5Z" fill="#fbb04f"/><path d="M58.51465,32h-.02936C56.80206,26.70587,50.63428,13,32,13,13.36945,13,7.19922,26.705,5.51483,31.999H5.48535a3.5,3.5,0,0,0,0,7H6.1665l3.91065,9.38575C10.48438,49.3623,11.166,51,13,51H51c1.834,0,2.51562-1.6377,2.92285-2.61523l3.9104-9.3852L58.51465,39a3.5,3.5,0,0,0,0-7ZM32,15c16.68561,0,22.59784,11.8114,24.39545,17.05127A6.03642,6.03642,0,0,0,53.94531,33.169,3.60132,3.60132,0,0,1,52,34.002h-.001a3.60155,3.60155,0,0,1-1.94433-.833A5.3266,5.3266,0,0,0,47,32a5.3266,5.3266,0,0,0-3.05469,1.169A3.60132,3.60132,0,0,1,42,34.002h-.001a3.60155,3.60155,0,0,1-1.94433-.833A5.32621,5.32621,0,0,0,37.001,32h-.00293a5.32923,5.32923,0,0,0-3.05274,1.168A3.60711,3.60711,0,0,1,32.001,34h-.002a3.61317,3.61317,0,0,1-1.94433-.832A5.32046,5.32046,0,0,0,27.002,31.999H26.999A5.32774,5.32774,0,0,0,23.94629,33.169a3.607,3.607,0,0,1-1.94531.832h-.002a3.60719,3.60719,0,0,1-1.94433-.832A5.3266,5.3266,0,0,0,17,32a5.3266,5.3266,0,0,0-3.05469,1.169,3.60415,3.60415,0,0,1-1.94433.832h-.002a3.60157,3.60157,0,0,1-1.94433-.833A6.03985,6.03985,0,0,0,7.6048,32.05066C9.40356,26.81158,15.31781,15,32,15ZM52.07715,47.61523C51.63477,48.67676,51.38379,49,51,49H13c-.38379,0-.63477-.32324-1.07715-1.38477L8.58063,39.59381c.11969.07684.23907.15405.36371.23724a5.32165,5.32165,0,0,0,3.05078,1.168H12.002a5.32622,5.32622,0,0,0,3.05371-1.16894A3.60714,3.60714,0,0,1,17,38.99805a3.61323,3.61323,0,0,1,1.94434.832A5.31964,5.31964,0,0,0,21.99512,40.999H22.002a5.32622,5.32622,0,0,0,3.05371-1.16894,3.60735,3.60735,0,0,1,1.94532-.833,3.61317,3.61317,0,0,1,1.94433.832,5.32006,5.32006,0,0,0,3.05176,1.169H32.002a5.31984,5.31984,0,0,0,3.05274-1.168,3.61016,3.61016,0,0,1,1.94433-.832H37a3.60461,3.60461,0,0,1,1.94434.833A5.32576,5.32576,0,0,0,41.99707,41H42.002a5.32615,5.32615,0,0,0,3.05371-1.169A3.60461,3.60461,0,0,1,47,38.99805a3.60461,3.60461,0,0,1,1.94434.833A5.32576,5.32576,0,0,0,51.99707,41H52.002a5.32039,5.32039,0,0,0,3.05274-1.169c.12506-.08331.24481-.16076.36487-.23773ZM58.51562,37,57.001,36.999h-.00293A5.32046,5.32046,0,0,0,53.94531,38.168,3.61293,3.61293,0,0,1,52,39h-.001a3.60149,3.60149,0,0,1-1.94433-.833A5.32666,5.32666,0,0,0,47,36.99805,5.32666,5.32666,0,0,0,43.94531,38.167,3.60126,3.60126,0,0,1,42,39h-.001a3.60149,3.60149,0,0,1-1.94433-.833A5.32627,5.32627,0,0,0,37.001,36.99805h-.00293a5.31977,5.31977,0,0,0-3.05274,1.168A3.61,3.61,0,0,1,32,38.99805h-.001a3.61325,3.61325,0,0,1-1.94433-.832,5.32039,5.32039,0,0,0-3.05274-1.169H26.999a5.333,5.333,0,0,0-3.05371,1.169A3.60132,3.60132,0,0,1,22,38.999h-.00293a3.60455,3.60455,0,0,1-1.94238-.832A5.32666,5.32666,0,0,0,17,36.99805,5.32666,5.32666,0,0,0,13.94531,38.167,3.60688,3.60688,0,0,1,12,38.999h-.00293a3.6076,3.6076,0,0,1-1.94238-.832A5.3293,5.3293,0,0,0,7.002,36.999H5.48535a1.5,1.5,0,0,1,0-3H6.999a3.60743,3.60743,0,0,1,1.94532.833A5.32583,5.32583,0,0,0,11.99707,36.001h.00586A5.32042,5.32042,0,0,0,15.05566,34.832,3.61323,3.61323,0,0,1,17,34a3.60714,3.60714,0,0,1,1.94434.832A5.32583,5.32583,0,0,0,21.99707,36.001h.00586A5.32625,5.32625,0,0,0,25.05664,34.832a3.6016,3.6016,0,0,1,1.94434-.833,3.61325,3.61325,0,0,1,1.94433.832A5.32,5.32,0,0,0,31.99707,36h.00586a5.3225,5.3225,0,0,0,3.05273-1.168A3.60738,3.60738,0,0,1,36.999,34H37a3.60456,3.60456,0,0,1,1.94434.833A5.32583,5.32583,0,0,0,41.99707,36.002H42.002A5.32622,5.32622,0,0,0,45.05566,34.833,3.60456,3.60456,0,0,1,47,34a3.60456,3.60456,0,0,1,1.94434.833A5.32583,5.32583,0,0,0,51.99707,36.002H52.002A5.32622,5.32622,0,0,0,55.05566,34.833,3.60456,3.60456,0,0,1,57,34h1.51465a1.5,1.5,0,0,1,.001,3ZM32,29a3.00328,3.00328,0,0,0,3-3c0-1.207-1.58789-5.1875-2.07422-6.37793a.99992.99992,0,0,0-1.85156,0C30.58789,20.8125,29,24.793,29,26A3.00328,3.00328,0,0,0,32,29Zm0-6.24023A18.11816,18.11816,0,0,1,33,26.001a1,1,0,0,1-2,0A18.11816,18.11816,0,0,1,32,22.75977ZM20.75781,27.24121a2.99372,2.99372,0,0,0,2.1211-.876l.001-.001c.85254-.85352,2.54395-4.791,3.042-5.97656a.9999.9999,0,0,0-1.3086-1.30958c-1.18652.49805-5.124,2.18946-5.97851,3.043a2.99854,2.99854,0,0,0,2.123,5.12012Zm-.708-3.70508a18.081,18.081,0,0,1,2.998-1.585,18.23417,18.23417,0,0,1-1.584,3,1.00024,1.00024,0,0,1-1.41407-1.415Zm21.07032,2.82813.001.001a3.00072,3.00072,0,1,0,4.24317-4.24414c-.85352-.85351-4.791-2.54492-5.97754-3.043a.9999.9999,0,0,0-1.3086,1.30958C38.57617,21.57324,40.26758,25.51074,41.12012,26.36426Zm2.8291-2.8291a1.00024,1.00024,0,0,1-1.41309,1.416,18.23417,18.23417,0,0,1-1.584-3A18.1128,18.1128,0,0,1,43.94922,23.53516Z"/></g></svg>