<?xml version="1.0" encoding="iso-8859-1"?>
<!-- Generator: Adobe Illustrator 24.1.0, SVG Export Plug-In . SVG Version: 6.00 Build 0)  -->
<svg version="1.1" xmlns="http://www.w3.org/2000/svg" xmlns:xlink="http://www.w3.org/1999/xlink" x="0px" y="0px"
	 viewBox="0 0 512 512" style="enable-background:new 0 0 512 512;" xml:space="preserve">
<g id="_x33_3_Pastry_x2C__sweet_x2C__baker_x2C__desserts_x2C__crispy">
	<g>
		<g id="XMLID_3086_">
			<path id="XMLID_3091_" style="fill:#FFD394;" d="M483.24,195.11c-5.48-20.52-4.64-43.67-15.03-61.63
				c-10.54-18.22-31.11-29.01-45.9-43.79c-14.78-14.79-25.57-35.36-43.79-45.9c-17.96-10.39-41.11-9.55-61.63-15.03
				C297.07,23.46,277.5,11,256,11s-41.07,12.46-60.89,17.76c-20.52,5.48-43.67,4.64-61.63,15.03
				c-18.22,10.54-29.01,31.11-43.79,45.9c-14.79,14.78-35.36,25.57-45.9,43.79c-10.39,17.96-9.55,41.11-15.03,61.63
				C23.46,214.93,11,234.5,11,256s12.46,41.07,17.76,60.89c5.48,20.52,4.64,43.67,15.03,61.63c10.54,18.22,31.11,29.01,45.9,43.79
				c14.78,14.79,25.57,35.36,43.79,45.9c17.96,10.39,41.11,9.55,61.63,15.03C214.93,488.54,234.5,501,256,501
				s41.07-12.46,60.89-17.76c20.52-5.48,43.67-4.64,61.63-15.03c18.22-10.54,29.01-31.11,43.79-45.9
				c14.79-14.78,35.36-25.57,45.9-43.79c10.39-17.96,9.55-41.11,15.03-61.63C488.54,297.07,501,277.5,501,256
				S488.54,214.93,483.24,195.11z"/>
			<path id="XMLID_3089_" style="fill:#B46615;" d="M409.77,213.8c-3.77-14.09-0.22-31.24-7.37-43.57
				c-7.25-12.51-23.95-17.95-34.11-28.11c-10.16-10.16-15.59-26.86-28.1-34.11c-12.34-7.15-29.49-3.6-43.58-7.37
				c-13.62-3.66-26.64-15.43-41.4-15.43c-14.77,0-27.79,11.77-41.41,15.43c-14.09,3.77-31.24,0.22-43.57,7.37
				c-12.51,7.25-17.95,23.95-28.11,34.11c-10.16,10.16-26.86,15.6-34.11,28.1c-7.15,12.34-3.6,29.49-7.37,43.58
				c-3.66,13.62-15.43,26.64-15.43,41.41c0,14.76,11.77,27.78,15.43,41.4c3.77,14.09,0.22,31.24,7.37,43.58
				c7.25,12.51,23.95,17.94,34.11,28.1c10.16,10.16,15.6,26.86,28.1,34.11c12.34,7.15,29.49,3.6,43.58,7.37
				c13.62,3.66,26.64,15.44,41.41,15.44c14.76,0,27.78-11.78,41.4-15.44c14.09-3.77,31.24-0.22,43.58-7.37
				c12.51-7.25,17.94-23.95,28.1-34.11c10.16-10.16,26.86-15.59,34.11-28.1c7.15-12.34,3.6-29.49,7.37-43.58
				c3.66-13.62,15.44-26.64,15.44-41.4C425.21,240.44,413.43,227.42,409.77,213.8z"/>
			<path id="XMLID_3087_" style="fill:#874208;" d="M256.77,204.27c27.43,0,49.67,22.24,49.67,49.67
				c0,27.44-22.24,49.68-49.67,49.68c-27.43,0-49.67-22.24-49.67-49.68C207.1,226.51,229.34,204.27,256.77,204.27z"/>
		</g>
		<g id="XMLID_3092_">
			<g id="XMLID_3113_">
				<path id="XMLID_3114_" d="M256,511c-15.79,0-29.877-5.594-43.501-11.004c-17.663-7.012-21.464-8.118-41.612-11.134
					c-14.382-2.153-29.253-4.38-42.415-11.996c-20.315-11.753-31.521-33.15-45.854-47.483
					c-14.338-14.338-35.729-25.539-47.483-45.855c-11.593-20.034-10.72-44.161-16.037-64.051C13.966,300.271,1,279.943,1,256
					c0-23.889,12.99-44.362,18.097-63.477c5.327-19.926,4.433-43.999,16.037-64.052c11.753-20.315,33.15-31.521,47.483-45.854
					c14.338-14.338,25.538-35.729,45.855-47.483c13.162-7.616,28.033-9.843,42.414-11.996c20.153-3.016,23.954-4.123,41.612-11.134
					C226.123,6.594,240.21,1,256,1s29.877,5.594,43.501,11.004c17.663,7.012,21.464,8.118,41.612,11.134
					c14.382,2.153,29.253,4.38,42.415,11.996c20.315,11.753,31.521,33.15,45.855,47.483c14.338,14.338,35.729,25.538,47.483,45.855
					c11.593,20.034,10.72,44.161,16.037,64.051C498.034,211.729,511,232.057,511,256c0,23.888-12.99,44.362-18.097,63.477
					c-5.327,19.926-4.433,43.999-16.037,64.052c-11.753,20.315-33.15,31.521-47.483,45.855
					c-14.338,14.338-25.539,35.729-45.855,47.483c-20.034,11.593-44.161,10.72-64.051,16.037C300.271,498.034,279.943,511,256,511z
					 M256,21c-11.964,0-23.697,4.659-36.119,9.592c-19.15,7.604-24.411,9.086-46.032,12.326c-13.108,1.962-25.49,3.816-35.36,9.526
					c-10.044,5.812-17.836,15.65-26.086,26.064C99.157,95.23,95.258,99.134,78.51,112.4c-10.415,8.25-20.253,16.042-26.066,26.087
					c-5.71,9.87-7.564,22.252-9.526,35.36c-3.236,21.599-4.712,26.858-12.326,46.033C25.659,232.303,21,244.036,21,256
					c0,19.029,11.971,37.927,17.419,58.313c5.605,20.975,4.875,43.382,14.025,59.199c9.304,16.08,29.145,26.558,44.316,41.729
					c15.152,15.155,25.641,35.007,41.728,44.315c15.808,9.145,38.208,8.416,59.2,14.025C218.126,479.044,236.933,491,256,491
					c19.029,0,37.927-11.971,58.313-17.419c20.975-5.605,43.382-4.875,59.199-14.025c16.08-9.304,26.558-29.145,41.729-44.315
					c15.155-15.152,35.007-25.641,44.315-41.728c9.145-15.808,8.416-38.208,14.025-59.2C479.044,293.874,491,275.067,491,256
					c0-19.029-11.971-37.927-17.419-58.313c-5.605-20.975-4.875-43.382-14.025-59.199c-9.304-16.08-29.145-26.558-44.315-41.728
					c-15.152-15.155-25.641-35.007-41.728-44.316c-15.808-9.145-38.208-8.416-59.2-14.025C293.874,32.956,275.067,21,256,21z"/>
			</g>
			<g id="XMLID_3109_">
				<path id="XMLID_3110_" d="M255.206,435.206c-11.29,0-21.122-5.069-29.797-9.542c-12.875-6.637-14.963-7.287-30.28-8.085
					c-9.61-0.5-20.504-1.067-29.918-6.523c-15.088-8.743-21.098-26.635-30.159-35.696c-9.057-9.059-26.954-15.072-35.696-30.159
					c-8.672-14.966-4.975-33.309-8.377-45.996c-3.252-12.129-15.772-26.234-15.772-43.998c0-11.29,5.069-21.122,9.542-29.797
					c6.643-12.886,7.286-14.966,8.084-30.279c0.501-9.611,1.068-20.504,6.523-29.919c8.75-15.097,26.628-21.09,35.697-30.159
					c9.059-9.057,15.072-26.954,30.159-35.696c14.966-8.672,33.309-4.975,45.996-8.377c12.138-3.255,26.232-15.772,43.998-15.772
					c17.732,0,31.917,12.533,43.998,15.772c12.622,3.384,31.067-0.273,45.997,8.377c9.537,5.527,15.471,14.741,20.705,22.871
					c8.128,12.621,9.675,14.163,22.278,22.278c8.13,5.235,17.345,11.169,22.872,20.706c8.673,14.97,4.973,33.304,8.376,45.996
					c3.258,12.14,15.773,26.234,15.773,43.999c0,11.289-5.069,21.121-9.541,29.796c-6.642,12.88-7.289,14.973-8.086,30.281
					c-0.5,9.61-1.067,20.503-6.523,29.918c-8.748,15.097-26.627,21.09-35.696,30.159c-9.059,9.056-15.072,26.952-30.158,35.696
					c-14.97,8.673-33.304,4.973-45.996,8.376C287.066,422.689,272.97,435.206,255.206,435.206z M255.206,95.206
					c-11.437,0-24.156,11.159-38.818,15.091c-15.005,4.021-31.72,0.899-41.148,6.363c-9.612,5.57-15.164,21.654-26.044,32.534
					c-4.867,4.866-10.598,8.557-16.141,12.126c-17.714,11.408-19.16,13.964-20.25,34.85c-0.345,6.628-0.702,13.48-2.508,20.218
					c-3.934,14.672-15.091,27.367-15.091,38.818c0,11.436,11.159,24.157,15.091,38.818c1.806,6.737,2.163,13.59,2.508,20.217
					c1.088,20.857,2.512,23.427,20.249,34.85c5.543,3.569,11.274,7.26,16.141,12.127c10.828,10.828,16.437,26.966,26.044,32.533
					c9.424,5.46,26.171,2.347,41.15,6.365c14.627,3.921,27.386,15.09,38.817,15.09c11.436,0,24.157-11.159,38.818-15.091
					c6.737-1.807,13.591-2.164,20.219-2.509c20.855-1.086,23.425-2.514,34.848-20.248c3.569-5.543,7.26-11.274,12.127-16.141
					c10.871-10.871,26.962-16.433,32.533-26.044c5.46-9.424,2.347-26.171,6.365-41.15c3.922-14.632,15.09-27.386,15.09-38.817
					c0-11.437-11.159-24.156-15.091-38.818c-1.807-6.737-2.164-13.591-2.509-20.219c-1.084-20.826-2.497-23.416-20.25-34.849
					c-5.542-3.569-11.272-7.259-16.139-12.125c-10.836-10.838-16.443-26.97-26.045-32.536c-9.39-5.44-26.223-2.362-41.148-6.362
					C279.392,106.373,266.645,95.206,255.206,95.206z"/>
			</g>
			<g id="XMLID_3107_">
				<path id="XMLID_3108_" d="M260.206,149.677h-0.941c-5.522,0-10-4.478-10-10c0-5.523,4.478-10,10-10h0.941
					c5.522,0,10,4.477,10,10C270.206,145.199,265.728,149.677,260.206,149.677z"/>
			</g>
			<g>
				<path id="XMLID_3106_" d="M312.71,165.965l-0.816-0.47c-4.787-2.755-6.435-8.868-3.681-13.655
					c2.755-4.786,8.865-6.436,13.655-3.681l0.816,0.47c4.787,2.755,6.435,8.868,3.681,13.655
					C323.615,167.062,317.507,168.724,312.71,165.965z"/>
			</g>
			<g>
				<path id="XMLID_3105_" d="M350.077,206.28l-0.473-0.814c-2.774-4.774-1.152-10.895,3.623-13.67
					c4.775-2.775,10.895-1.153,13.67,3.623l0.473,0.813c2.774,4.774,1.152,10.896-3.623,13.67S352.853,211.057,350.077,206.28z"/>
			</g>
			<g>
				<path id="XMLID_3104_" d="M362.337,259.857l-0.003-0.94c-0.018-5.53,4.46-10.031,10.001-10.031c5.508,0,9.981,4.456,9.999,9.969
					l0.003,0.94c0.018,5.523-4.446,10.014-9.969,10.031C366.747,269.826,362.354,265.302,362.337,259.857z"/>
			</g>
			<g>
				<path id="XMLID_3103_" d="M349.945,326.059c-4.796-2.738-6.464-8.847-3.725-13.643l0.467-0.817
					c2.739-4.795,8.847-6.464,13.643-3.725c4.796,2.738,6.464,8.847,3.725,13.643l-0.467,0.817
					C360.862,327.106,354.764,328.811,349.945,326.059z"/>
			</g>
			<g>
				<path id="XMLID_3102_" d="M302.442,363.588c-2.786-4.769-1.178-10.894,3.591-13.679l0.813-0.475
					c4.77-2.787,10.894-1.178,13.679,3.591c2.786,4.769,1.178,10.894-3.591,13.679l-0.813,0.475
					C311.362,369.96,305.234,368.366,302.442,363.588z"/>
			</g>
			<g>
				<path id="XMLID_3101_" d="M242.553,372.411c-0.034-5.523,4.415-10.028,9.938-10.063l0.941-0.006
					c5.678,0,10.029,4.531,10.063,9.938c0.034,5.523-4.415,10.028-9.938,10.063l-0.941,0.006
					C246.938,382.349,242.586,377.817,242.553,372.411z"/>
			</g>
			<g>
				<path id="XMLID_3100_" d="M190.827,364.264l-0.818-0.465c-4.802-2.728-6.483-8.832-3.756-13.635
					c2.728-4.802,8.835-6.482,13.635-3.756l0.818,0.465c4.802,2.728,6.483,8.832,3.756,13.635
					C201.748,365.286,195.652,367.004,190.827,364.264z"/>
			</g>
			<g>
				<path id="XMLID_3099_" d="M145.497,317.299l-0.478-0.81c-2.803-4.759-1.219-10.889,3.54-13.692
					c4.76-2.803,10.889-1.219,13.692,3.54l0.478,0.811c2.803,4.759,1.219,10.889-3.54,13.692
					C154.449,323.63,148.313,322.078,145.497,317.299z"/>
			</g>
			<g>
				<path id="XMLID_3098_" d="M129.651,253.977l-0.01-0.941c-0.058-5.565,4.437-10.104,10.001-10.104
					c5.475,0,9.94,4.409,9.997,9.896l0.01,0.941c0.058,5.523-4.373,10.046-9.895,10.102
					C134.539,264.018,129.71,259.708,129.651,253.977z"/>
			</g>
			<g>
				<path id="XMLID_3097_" d="M151.33,204.806c-4.813-2.71-6.518-8.808-3.808-13.62l0.462-0.82c2.712-4.813,8.811-6.515,13.62-3.808
					c4.813,2.71,6.518,8.808,3.808,13.62l-0.462,0.82C162.236,205.818,156.136,207.511,151.33,204.806z"/>
			</g>
			<g>
				<path id="XMLID_3096_" d="M190.846,159.401c-2.818-4.749-1.254-10.885,3.496-13.703l0.81-0.48
					c4.75-2.819,10.884-1.255,13.703,3.496c2.818,4.749,1.254,10.885-3.496,13.703l-0.81,0.48
					C199.799,165.717,193.664,164.151,190.846,159.401z"/>
			</g>
			<g>
				<path id="XMLID_3093_" d="M256.772,313.617c-32.903,0-59.673-26.769-59.673-59.672s26.77-59.673,59.673-59.673
					s59.673,26.77,59.673,59.673S289.675,313.617,256.772,313.617z M256.772,214.273c-21.876,0-39.673,17.797-39.673,39.673
					c0,21.875,17.797,39.672,39.673,39.672c21.876,0,39.673-17.797,39.673-39.672C296.444,232.069,278.647,214.273,256.772,214.273z
					"/>
			</g>
		</g>
	</g>
</g>
<g id="Layer_1">
</g>
</svg>
